<?xml version="1.0" encoding="utf-8"?>
<!-- Generator: Adobe Illustrator 16.0.0, SVG Export Plug-In . SVG Version: 6.00 Build 0)  -->
<!DOCTYPE svg PUBLIC "-//W3C//DTD SVG 1.1//EN" "http://www.w3.org/Graphics/SVG/1.1/DTD/svg11.dtd">
<svg version="1.1" id="Capa_1" xmlns="http://www.w3.org/2000/svg" xmlns:xlink="http://www.w3.org/1999/xlink" x="0px" y="0px"
	 width="168.945px" height="168.945px" viewBox="0 0 168.945 168.945" enable-background="new 0 0 168.945 168.945"
	 xml:space="preserve">
<g>
	<path fill="#99C329" d="M0.551,67.188c0,0,35.328-4.844,60.523,1.658c25.702,6.632,38.138,30.676,38.138,44.771
		c0,14.094-10.778,31.504-10.778,31.504s-34.822,18.24-61.353-2.486C-1.042,120.663,0.551,67.188,0.551,67.188z"/>
</g>
<g>
	<path fill="#4CA634" d="M164.711,8.69c0,0-60.294,13.449-78.763,45.6c-22.385,38.966,14.924,70.473,14.924,70.473
		s34.82,5.804,55.549-19.897C177.147,79.164,164.711,8.69,164.711,8.69z"/>
</g>
<g>
	<path fill="#215526" d="M98.382,162.901c-2.018,0-3.677-1.609-3.729-3.638c-0.051-2.062-1.076-50.976,15.183-92.246
		c16.3-41.376,42.159-65.079,43.251-66.067c1.004-0.909,2.421-1.202,3.705-0.766c1.281,0.436,2.227,1.533,2.469,2.866
		c0.354,1.945,8.566,48.09,1.24,87.164c-3.307,17.638-14.561,30.438-32.543,37.017c-10.938,4.001-21.131,4.526-24.655,4.58
		c-1.431,15.899-1.194,27.034-1.19,27.267c0.053,2.061-1.575,3.771-3.635,3.823C98.444,162.9,98.414,162.901,98.382,162.901z
		 M153.03,11.639c-8.264,8.948-24.862,29.203-36.252,58.114c-7.135,18.114-10.816,38.101-12.707,54.569
		c3.703-0.131,12.436-0.811,21.527-4.174c15.473-5.725,24.748-16.258,27.569-31.309C158.569,60.028,155.034,26.195,153.03,11.639z"
		/>
</g>
<g>
	<path fill="#215526" d="M97.138,131.811c-0.794,0-1.594-0.252-2.271-0.774c-1.396-1.072-34.083-26.736-26.256-65.87
		c3.845-19.225,19.619-36.048,46.885-50.003c19.894-10.182,38.412-14.872,39.191-15.066c1.995-0.5,4.022,0.715,4.523,2.714
		c0.5,1.999-0.715,4.024-2.713,4.525c-0.723,0.181-72.431,18.598-80.571,59.294C69,101.265,99.11,124.889,99.416,125.124
		c1.633,1.256,1.938,3.599,0.682,5.231C99.362,131.31,98.256,131.811,97.138,131.811z"/>
</g>
<g>
	<path fill="#215526" d="M108.95,80.663c-0.736,0-1.48-0.218-2.131-0.672c-1.689-1.179-2.104-3.504-0.924-5.194
		c19.439-27.864,51.768-30.703,53.135-30.81c2.051-0.171,3.85,1.374,4.011,3.428c0.161,2.052-1.371,3.847-3.423,4.011
		c-0.361,0.03-30.248,2.764-47.604,27.641C111.289,80.104,110.13,80.662,108.95,80.663z"/>
</g>
<g>
	<path fill="#215526" d="M103.354,106.778c-0.652,0-1.314-0.172-1.916-0.531c-1.767-1.061-2.34-3.353-1.279-5.119
		c17.51-29.184,54.604-34.521,56.174-34.734c2.035-0.275,3.921,1.154,4.199,3.196c0.276,2.042-1.154,3.921-3.195,4.198
		c-0.521,0.073-35.18,5.179-50.779,31.178C105.858,106.132,104.622,106.778,103.354,106.778z"/>
</g>
<g>
	<path fill="#215526" d="M117.664,60.923c-0.11,0-0.222-0.005-0.333-0.015c-2.053-0.181-3.569-1.992-3.389-4.044
		c1.744-19.749-5.049-31.9-5.119-32.021c-1.021-1.789-0.4-4.068,1.389-5.09c1.79-1.022,4.068-0.401,5.09,1.388
		c0.329,0.575,8.02,14.327,6.073,36.379C121.205,59.461,119.575,60.923,117.664,60.923z"/>
</g>
<g>
	<path fill="#215526" d="M89.919,168.96c-1.984,0-3.635-1.563-3.724-3.565c-0.006-0.123-0.349-6.097-3.07-15.763
		c-1.924,0.475-12.759,2.932-25.615,1.586c-18.823-1.971-32.851-11.17-40.568-26.604C3.331,97.391,9.493,60.445,9.762,58.885
		c0.187-1.081,0.839-2.024,1.784-2.581c0.945-0.558,2.086-0.668,3.122-0.308c1.138,0.397,28.147,10.12,52.803,44.892
		c24.603,34.696,26.125,62.987,26.179,64.174c0.092,2.06-1.504,3.802-3.563,3.894C90.031,168.958,89.975,168.96,89.919,168.96z
		 M16.491,64.934c-1.149,10.622-2.659,36.774,7.124,56.343c6.584,13.167,18.178,20.736,34.459,22.497
		c10.821,1.171,20.308-0.715,22.801-1.278c-3.583-10.293-9.557-23.279-19.492-37.289C49.271,88.124,36.549,77.571,28.009,71.728
		C23.287,68.496,19.286,66.306,16.491,64.934z"/>
</g>
<g>
	<path fill="#215526" d="M70.401,69.468c-0.886,0-1.774-0.313-2.486-0.951c-8.737-7.816-40.961-7.803-52.641-7.139
		c-2.062,0.137-3.819-1.455-3.937-3.512c-0.117-2.057,1.455-3.82,3.512-3.937c4.614-0.264,45.437-2.25,58.042,9.028
		c1.536,1.374,1.667,3.732,0.292,5.268C72.445,69.049,71.425,69.468,70.401,69.468z"/>
</g>
<g>
	<path fill="#215526" d="M88.432,147.195c-0.817,0-1.64-0.267-2.328-0.817c-1.609-1.287-1.87-3.635-0.583-5.244
		c0.131-0.166,6.985-8.877,9.231-18.422c0.472-2.006,2.479-3.25,4.485-2.777s3.25,2.48,2.777,4.486
		c-2.65,11.26-10.342,20.965-10.668,21.373C90.61,146.716,89.527,147.195,88.432,147.195z"/>
</g>
<g>
	<path fill="#215526" d="M61.315,102.425c-0.587,0-1.183-0.139-1.738-0.432c-20.763-10.957-44.771-3.55-45.011-3.474
		c-1.964,0.62-4.061-0.465-4.684-2.429c-0.623-1.965,0.465-4.062,2.429-4.684c1.101-0.351,27.252-8.414,50.749,3.987
		c1.822,0.961,2.52,3.218,1.558,5.041C63.949,101.702,62.654,102.425,61.315,102.425z"/>
</g>
<g>
	<path fill="#215526" d="M71.678,118.179c-0.605,0-1.22-0.146-1.789-0.459c-24.033-13.161-50.995-0.067-51.264,0.066
		c-1.844,0.916-4.083,0.166-5-1.677c-0.918-1.843-0.173-4.079,1.668-5c1.239-0.62,30.667-15.003,58.18,0.063
		c1.807,0.99,2.47,3.258,1.48,5.064C74.276,117.478,72.998,118.179,71.678,118.179z"/>
</g>
</svg>
