<?xml version="1.0" encoding="utf-8"?>
<!-- Generator: Adobe Illustrator 16.0.0, SVG Export Plug-In . SVG Version: 6.00 Build 0)  -->
<!DOCTYPE svg PUBLIC "-//W3C//DTD SVG 1.1//EN" "http://www.w3.org/Graphics/SVG/1.1/DTD/svg11.dtd">
<svg version="1.1" id="Layer_1" xmlns="http://www.w3.org/2000/svg" xmlns:xlink="http://www.w3.org/1999/xlink" x="0px" y="0px"
	 width="444.918px" height="209.04px" viewBox="43.352 23.13 444.918 209.04" enable-background="new 43.352 23.13 444.918 209.04"
	 xml:space="preserve">
<g>
	<path fill="#97DB18" d="M398.409,158.794c0,0-11.814-39.174,5.596-65.913c17.411-26.738,83.945-20.52,83.945-20.52
		s3.821,46.223-14.924,70.888C449.397,174.339,398.409,158.794,398.409,158.794z"/>
</g>
<g>
	<path fill="#4AA504" d="M289.59,40.028c0,0,62.183-16.789,97.625,11.193c24.505,19.346,16.168,37.309,14.302,55.963
		c-1.443,14.444-8.083,24.25-8.083,24.25s-58.072,10.632-81.458-19.898C289.59,82.312,289.59,40.028,289.59,40.028z"/>
</g>
<g>
	<path fill="#185407" d="M389.496,232.169H54.545c-6.172,0-11.193-5.021-11.193-11.193V116.511c0-6.172,5.021-11.193,11.193-11.193
		h236.29c2.062,0,3.729,1.67,3.729,3.731s-1.67,3.731-3.729,3.731H54.545c-2.057,0-3.731,1.674-3.731,3.73v104.465
		c0,2.057,1.674,3.73,3.731,3.73h334.951c2.058,0,3.73-1.674,3.73-3.73v-66.971c-0.662-6.571-1.785-12.885-3.286-18.94
		c-0.06,0.014-0.117,0.026-0.177,0.037c-0.574,0.107-14.239,2.581-30.441-0.468c-21.822-4.104-37.66-16.315-45.801-35.309
		c-11.664-27.218-7.914-69.662-7.748-71.456c0.115-1.245,0.846-2.349,1.945-2.942c1.102-0.592,2.425-0.595,3.527-0.006
		c0.828,0.442,20.53,11.078,41.516,32.22c19.433,19.576,43.518,52.176,47.908,96.308c0.012,0.123,0.018,0.246,0.018,0.37v67.156
		C400.688,227.148,395.667,232.169,389.496,232.169z M312.828,34.546c-0.588,12.567-0.894,42.136,7.553,61.84
		c16.385,38.235,62.415,32.256,67.555,31.457C371.844,75.5,327.846,44.018,312.828,34.546z"/>
</g>
<g>
	<path fill="#185407" d="M395.296,138.897c-0.572,0-1.152-0.132-1.696-0.41c-1.835-0.938-2.561-3.187-1.622-5.021
		c0.056-0.107,5.57-11.013,8.729-25.304c2.839-12.852,4.306-31.199-4.827-45.618c-22.197-35.049-84.307-31.884-84.931-31.85
		c-2.067,0.123-3.821-1.453-3.939-3.51c-0.119-2.057,1.452-3.821,3.51-3.939c0.679-0.039,16.858-0.917,36.218,2.861
		c26.05,5.083,45.224,16.302,55.447,32.446c8.33,13.153,10.325,30.926,5.77,51.397c-3.379,15.184-9.09,26.444-9.331,26.916
		C397.96,138.155,396.653,138.897,395.296,138.897z"/>
</g>
<g>
	<path fill="#185407" d="M397.788,168.744c-0.379,0-0.763-0.058-1.144-0.18c-1.961-0.63-3.039-2.73-2.41-4.691
		c0.455-1.416,11.387-34.976,33.078-59.768c17.491-19.989,47.847-41.93,49.131-42.854c1.673-1.203,4.005-0.824,5.207,0.848
		c1.203,1.672,0.824,4.004-0.849,5.208c-0.307,0.221-30.95,22.372-47.874,41.712c-20.651,23.603-31.481,56.803-31.59,57.135
		C400.83,167.736,399.365,168.744,397.788,168.744z"/>
</g>
<g>
	<path fill="#185407" d="M411.579,160.453c-5.438,0-8.978-0.406-9.259-0.44c-2.046-0.244-3.507-2.101-3.265-4.146
		c0.245-2.047,2.103-3.509,4.146-3.265c0.491,0.056,49.713,5.437,64.554-27.668c7.189-16.038,7.386-47.373,7.227-58.071
		c-12.07,0.486-50.732,3.403-64.302,20.848c-1.266,1.626-3.608,1.92-5.235,0.654c-1.626-1.265-1.919-3.609-0.654-5.235
		c18.321-23.555,71.574-23.826,73.832-23.826c2.003,0,3.648,1.582,3.728,3.583c0.071,1.791,1.637,44.084-7.784,65.1
		c-7.127,15.9-21.979,26.476-42.949,30.583C423.976,160.066,416.876,160.453,411.579,160.453z"/>
</g>
<g>
	<path fill="#185407" d="M435.921,103.661c-0.532,0-1.072-0.115-1.586-0.356c-1.864-0.877-2.664-3.1-1.787-4.965
		c6.144-13.053,5.461-29.577,5.453-29.742c-0.095-2.057,1.495-3.803,3.552-3.899c2.06-0.105,3.805,1.491,3.901,3.548
		c0.036,0.749,0.793,18.507-6.154,33.271C438.665,102.869,437.322,103.661,435.921,103.661z"/>
</g>
<g>
	<path fill="#185407" d="M425.978,117.756c-1.465,0-2.854-0.868-3.448-2.305c-0.788-1.904,0.117-4.086,2.021-4.874
		c25.124-10.396,49.798-1.264,50.837-0.87c1.928,0.73,2.896,2.885,2.165,4.812c-0.729,1.924-2.876,2.896-4.807,2.167l0,0
		c-0.229-0.085-23.022-8.45-45.342,0.786C426.936,117.665,426.453,117.756,425.978,117.756z"/>
</g>
<g>
	<path fill="#185407" d="M416.031,132.679c-1.26,0-2.488-0.637-3.19-1.792c-1.071-1.76-0.514-4.056,1.247-5.127
		c20.173-12.279,56.452-3.305,57.988-2.917c1.997,0.505,3.206,2.533,2.701,4.53c-0.504,1.998-2.541,3.207-4.529,2.704
		c-0.346-0.086-34.784-8.593-52.281,2.057C417.361,132.503,416.691,132.679,416.031,132.679z"/>
</g>
<g>
	<path fill="#185407" d="M360.474,76.301c-0.697,0-1.404-0.196-2.033-0.606c-17.621-11.491-47.656-6.949-47.956-6.901
		c-2.041,0.318-3.945-1.071-4.266-3.106s1.068-3.943,3.104-4.265c1.344-0.212,33.152-5.049,53.193,8.021
		c1.727,1.125,2.213,3.437,1.087,5.163C362.888,75.704,361.693,76.301,360.474,76.301z"/>
</g>
<g>
	<path fill="#185407" d="M370.424,87.909c-1.686,0-3.214-1.15-3.625-2.861c-5.184-21.597,3.896-45.939,4.284-46.965
		c0.73-1.926,2.884-2.898,4.812-2.165c1.927,0.73,2.896,2.883,2.166,4.809l0,0c-0.087,0.23-8.645,23.251-4.006,42.58
		c0.48,2.003-0.754,4.018-2.757,4.499C371.005,87.875,370.712,87.909,370.424,87.909z"/>
</g>
<g>
	<path fill="#185407" d="M378.713,98.686c-1.943,0-3.582-1.506-3.718-3.474c-1.732-25.108,11.737-43.945,12.312-44.734
		c1.213-1.667,3.547-2.035,5.213-0.823c1.664,1.211,2.033,3.542,0.825,5.208c-0.166,0.231-12.441,17.553-10.905,39.836
		c0.143,2.056-1.409,3.837-3.466,3.979C378.886,98.683,378.799,98.686,378.713,98.686z"/>
</g>
<g>
	<path fill="#4AA504" d="M408.358,166.878c0,0,25.493-4.354,33.576,6.218c8.084,10.571,4.976,28.604,4.976,28.604
		s-16.789,0.621-27.359-4.976C408.979,191.128,408.358,166.878,408.358,166.878z"/>
</g>
<g>
	<path fill="#B0DE17" d="M412.088,67.388c0,0-7.462-14.923-2.487-28.604c4.976-13.68,24.251-15.545,24.251-15.545
		s5.548,14.996,0.414,26.116C428.048,62.828,412.088,67.388,412.088,67.388z"/>
</g>
<g>
	<path fill="#97DB18" d="M292.493,95.784c0,0,0-24.873-12.437-31.505c-12.438-6.632-32.334,0-32.334,0s1.658,19.069,14.094,26.531
		C274.252,98.271,292.493,95.784,292.493,95.784z"/>
</g>
<g>
	<path fill="#185407" d="M91.946,180.042h-20.32v21.315h22.721v10.873H61.785v-72.557h31.361v10.873H71.625v18.731h20.32
		L91.946,180.042L91.946,180.042z"/>
	<path fill="#185407" d="M141.306,210.078c-2.32,1.615-7.44,3.338-13.921,3.338c-17.12,0-27.521-14.533-27.521-36.602
		c0-23.898,12.32-38.324,28.801-38.324c6.48,0,11.12,1.83,13.12,3.228l-2.16,10.551c-2.56-1.507-6.08-2.799-10.56-2.799
		c-10.961,0-18.881,9.258-18.881,26.697c0,15.932,6.96,26.158,18.801,26.158c4,0,8.16-1.076,10.72-2.691L141.306,210.078z"/>
	<path fill="#185407" d="M195.147,175.199c0,24.329-10.961,38.217-25.841,38.217c-15.2,0-24.801-15.609-24.801-36.924
		c0-22.285,10.4-38,25.601-38C185.867,138.49,195.147,154.531,195.147,175.199z M154.906,176.275c0,14.749,5.521,26.59,14.96,26.59
		c9.521,0,14.881-11.949,14.881-27.128c0-13.671-5.04-26.696-14.881-26.696C160.106,149.041,154.906,161.312,154.906,176.275z"/>
	<path fill="#185407" d="M203.066,197.805c3.2,2.476,8,4.629,13.04,4.629c6.32,0,9.84-3.983,9.84-9.904
		c0-5.489-2.72-8.72-9.6-12.057c-8.881-4.306-14.561-10.658-14.561-21.101c0-11.842,7.36-20.884,19.04-20.884
		c5.841,0,10.16,1.722,12.961,3.66l-2.4,10.657c-1.92-1.398-5.68-3.445-10.721-3.445c-6.239,0-8.96,4.521-8.96,8.721
		c0,5.598,3.12,8.182,10.32,11.948c9.36,4.737,13.921,11.089,13.921,21.53c0,11.626-6.561,21.854-20.48,21.854
		c-5.681,0-11.601-2.262-14.561-4.629L203.066,197.805z"/>
	<path fill="#185407" d="M244.505,212.23v-72.557h11.201l13.92,31.112c3.601,8.073,6.72,16.469,9.2,24.328h0.16
		c-0.641-9.688-0.881-19.054-0.881-30.142v-25.298h9.121v72.557h-10.16l-14.082-31.973c-3.438-7.857-7.039-16.793-9.68-24.975
		l-0.24,0.107c0.4,9.365,0.48,18.947,0.48,30.896v25.943H244.505z"/>
	<path fill="#185407" d="M309.065,191.669l-4.642,20.562h-10.16l17.28-72.557h12.562l17.521,72.557h-10.561l-4.881-20.562H309.065z
		 M324.505,181.658l-4.24-17.869c-1.04-4.414-1.92-9.367-2.72-13.564h-0.16c-0.8,4.197-1.601,9.258-2.561,13.564l-4.16,17.869
		H324.505z"/>
	<path fill="#185407" d="M352.665,150.761h-15.36v-11.087h40.723v11.087h-15.521v61.47h-9.841V150.761L352.665,150.761z"/>
</g>
</svg>
